<!-- Generated by IcoMoon.io -->
<svg version="1.1" xmlns="http://www.w3.org/2000/svg" width="40" height="40" viewBox="0 0 40 40">
<title>aircraft-take-off</title>
<path d="M39.74 12.906c0.238 0.514 0.254 2.58-9.768 7.284l-9.826 4.612c-3.42 1.606-8.382 3.718-10.57 4.302-1.532 0.408-2.994-0.632-2.994-0.632s-4.412-3.95-5.584-4.838c-1.17-0.888-1.070-1.34 0.43-1.82 0.934-0.298 6.26 0.986 8.53 1.56 2.678-1.6 5.124-2.972 6.282-3.596-2.792-2.066-8.016-5.924-9.682-7.1-1.598-1.13 0.020-1.536 0.020-1.536 0.736-0.198 2.324-0.456 3.124-0.288 5.442 1.138 14.526 4.142 15.222 4.372 1.664-0.872 4.256-2.184 5.844-2.93 4.15-1.948 8.654-0.074 8.972 0.61z"></path>
</svg>
