<svg aria-hidden="true" style="position: absolute; width: 0; height: 0; overflow: hidden;" version="1.1" xmlns="http://www.w3.org/2000/svg" xmlns:xlink="http://www.w3.org/1999/xlink">
<defs>
<symbol id="icon-bookmark" viewBox="0 0 40 40">
<path d="M28 4v34l-8-8-8 8v-34c0-1.106 1.17-2.040 2-2h12c1.378-0.040 2 0.894 2 2z"></path>
</symbol>
<symbol id="icon-chevron-thin-right" viewBox="0 0 40 40">
<path d="M26.5 20l-14.282-14.84c-0.536-0.54-0.536-1.414 0-1.958 0.536-0.54 1.402-0.54 1.938 0l15.66 15.816c0.536 0.542 0.536 1.418 0 1.958l-15.66 15.816c-0.536 0.542-1.402 0.54-1.938 0-0.536-0.538-0.536-1.414 0-1.958l14.282-14.834z"></path>
</symbol>
<symbol id="icon-aircraft-take-off" viewBox="0 0 40 40">
<path d="M39.74 12.906c0.238 0.514 0.254 2.58-9.768 7.284l-9.826 4.612c-3.42 1.606-8.382 3.718-10.57 4.302-1.532 0.408-2.994-0.632-2.994-0.632s-4.412-3.95-5.584-4.838c-1.17-0.888-1.070-1.34 0.43-1.82 0.934-0.298 6.26 0.986 8.53 1.56 2.678-1.6 5.124-2.972 6.282-3.596-2.792-2.066-8.016-5.924-9.682-7.1-1.598-1.13 0.020-1.536 0.020-1.536 0.736-0.198 2.324-0.456 3.124-0.288 5.442 1.138 14.526 4.142 15.222 4.372 1.664-0.872 4.256-2.184 5.844-2.93 4.15-1.948 8.654-0.074 8.972 0.61z"></path>
</symbol>
<symbol id="icon-chat" viewBox="0 0 40 40">
<path d="M11.6 24.4v-12.4h-7.6c-2.2 0-4 1.8-4 4v12c0 2.2 1.8 4 4 4h2v6l6-6h10c2.2 0 4-1.8 4-4v-3.64c-0.128 0.028-0.264 0.042-0.4 0.042l-14-0.002zM36 2h-18c-2.2 0-4 1.8-4 4v16h14l6 6v-6h2c2.2 0 4-1.798 4-4v-12c0-2.2-1.8-4-4-4z"></path>
</symbol>
<symbol id="icon-home" viewBox="0 0 40 40">
<path d="M37.344 22h-3.344v12c0 0.89-0.388 2-2 2h-8v-12h-8v12h-8c-1.612 0-2-1.11-2-2v-12h-3.344c-1.196 0-0.94-0.648-0.12-1.496l16.048-16.064c0.39-0.404 0.902-0.604 1.416-0.624 0.514 0.020 1.026 0.218 1.416 0.624l16.046 16.062c0.822 0.85 1.078 1.498-0.118 1.498z"></path>
</symbol>
<symbol id="icon-key" viewBox="0 0 40 40">
<path d="M35.382 9.45c-1.006-5.954-6.44-9.934-12.138-8.882-5.7 1.050-10.512 5.632-9.506 11.59 0.214 1.282 0.816 3.288 1.526 4.73l-10.35 15.446c-0.382 0.57-0.598 1.598-0.484 2.282l0.666 3.942c0.116 0.684 0.744 1.144 1.4 1.028l3.032-0.562c0.656-0.118 1.488-0.696 1.848-1.278l4.094-6.622 0.036-0.044 2.772-0.512 4.78-7.758c1.57 0.278 3.824 0.184 5.156-0.062 5.696-1.052 8.174-7.34 7.168-13.298zM30.332 12.504c-1.568 2.34-3.168 0.692-5.406-0.95-2.238-1.636-4.27-2.644-2.704-4.984 1.568-2.34 4.652-2.91 6.894-1.27 2.24 1.638 2.782 4.864 1.216 7.204z"></path>
</symbol>
<symbol id="icon-location-pin" viewBox="0 0 40 40">
<path d="M20 4.018c-5.524 0-10 4.458-10 9.98 0 9.548 10 22 10 22s10-12.454 10-22c0-5.52-4.476-9.98-10-9.98zM20 19.52c-2.984 0-5.4-2.418-5.4-5.4s2.416-5.4 5.4-5.4c2.98 0 5.398 2.418 5.398 5.4s-2.418 5.4-5.398 5.4z"></path>
</symbol>
<symbol id="icon-magnifying-glass" viewBox="0 0 40 40">
<path d="M35.090 30.934l-7.558-7.558c1.14-1.87 1.796-4.070 1.796-6.42 0-6.834-5.922-12.754-12.756-12.754-6.834-0.002-12.372 5.538-12.372 12.372 0 6.832 5.922 12.754 12.754 12.754 2.274 0 4.4-0.618 6.23-1.688l7.598 7.602c0.744 0.742 1.95 0.742 2.692 0l1.886-1.886c0.742-0.742 0.472-1.68-0.27-2.422zM8.008 16.574c0-4.732 3.834-8.566 8.564-8.566 4.732 0 8.948 4.214 8.948 8.948 0 4.73-3.836 8.566-8.566 8.566-4.732-0.002-8.946-4.218-8.946-8.948z"></path>
</symbol>
<symbol id="icon-map" viewBox="0 0 40 40">
<path d="M38.894 7.436l-12-6c-0.562-0.282-1.226-0.282-1.79 0l-11.26 5.63-11.212-3.738c-0.612-0.204-1.28-0.102-1.802 0.276-0.522 0.376-0.83 0.98-0.83 1.622v26.002c0 0.758 0.428 1.45 1.106 1.788l12 6c0.282 0.14 0.588 0.212 0.894 0.212s0.614-0.070 0.894-0.212l11.26-5.628 11.212 3.738c0.61 0.2 1.28 0.098 1.802-0.278s0.83-0.98 0.83-1.62v-26.004c0.002-0.758-0.426-1.45-1.104-1.788zM16 10.462l8-4v23.526l-8 4v-23.526zM4 8l8 2.666v23.322l-8-4v-21.988zM36 32.454l-8-2.668v-23.324l8 4v21.992z"></path>
</symbol>
<symbol id="icon-star" viewBox="0 0 40 40">
<path d="M20 2.6l4.776 13.444h12.824l-10.464 7.896 3.742 13.856-10.878-8.308-10.876 8.308 3.74-13.856-10.466-7.896h12.824l4.778-13.444z"></path>
</symbol>
</defs>
</svg>
